<?xml version="1.0" encoding="utf-8"?>
<!-- Generator: Adobe Illustrator 21.0.2, SVG Export Plug-In . SVG Version: 6.00 Build 0)  -->
<svg version="1.1" id="Слой_1" xmlns="http://www.w3.org/2000/svg" xmlns:xlink="http://www.w3.org/1999/xlink" x="0px" y="0px"
	 viewBox="0 0 475.4 362.6" style="enable-background:new 0 0 475.4 362.6;" xml:space="preserve">
<style type="text/css">
	.st0{fill:#FFFFFF;}
	.st1{fill:#0E0F0F;}
</style>
<g>
	<path class="st0" d="M235.2,333.4c-19.4-7.3-86-30.3-152.6-30.3c-26.3,0-49.7,3.7-69.6,10.9V34.5C24.6,31,56.2,22.7,95.2,22.7
		c51.2,0,104.2,21.9,140.2,49.4v159l-0.2-8.9V333.4z"/>
	<path d="M95.2,22.7c51.2,0,104.2,21.9,140.2,49.4v159l-0.2-8.9v111.2c-19.4-7.3-86-30.3-152.6-30.3c-26.3,0-49.7,3.7-69.6,10.9
		V34.5C24.6,31,56.2,22.7,95.2,22.7 M95.2,9.7c-40.8,0-73.7,8.7-86,12.4C3.7,23.8,0,28.8,0,34.5V314c0,4.2,2.1,8.2,5.5,10.7
		c2.2,1.5,4.8,2.3,7.5,2.3c1.5,0,3-0.3,4.5-0.8c18.5-6.7,40.4-10.2,65.1-10.2c64.7,0,129.7,22.6,148.1,29.5c1.5,0.6,3,0.8,4.6,0.8
		c2.6,0,5.2-0.8,7.4-2.3c3.5-2.4,5.6-6.4,5.6-10.7V233.1c0.1-0.6,0.2-1.3,0.2-2v-159c0-4.1-1.9-7.9-5.1-10.3
		c-19.6-15-43.1-27.8-67.8-36.9C148.6,14.9,120.8,9.7,95.2,9.7L95.2,9.7z"/>
</g>
<g>
	<path class="st0" d="M462.4,314.1c-21.4-7.8-45.9-11.7-73.1-11.7c-66.6,0-130.1,23.2-149.2,30.9v-111l-0.2,8.9v-159
		c35.9-27.5,89-49.4,140.2-49.4c38.8,0,70.6,8.3,82.2,11.9C462.4,34.5,462.4,314.1,462.4,314.1z"/>
	<path d="M380.2,22.7c38.8,0,70.6,8.3,82.2,11.9c0,0,0,279.5,0,279.5c-21.4-7.8-45.9-11.7-73.1-11.7c-66.6,0-130.1,23.2-149.2,30.9
		v-111l-0.2,8.9v-159C275.9,44.6,329,22.7,380.2,22.7 M380.2,9.7c-25.6,0-53.4,5.3-80.3,15.2c-24.7,9.1-48.2,21.9-67.8,36.9
		c-3.2,2.5-5.1,6.3-5.1,10.3v159c0,0.7,0.1,1.4,0.2,2.1v100c0,4.3,2.1,8.3,5.7,10.8c2.2,1.5,4.7,2.2,7.3,2.2c1.6,0,3.3-0.3,4.8-0.9
		c17.6-7,79.9-30,144.3-30c25.7,0,48.7,3.7,68.6,11c1.4,0.5,2.9,0.8,4.5,0.8c6.4,0,13-4.9,13-13.2v-0.6v-2.3v-8.9l0-31.7v-96.1V34.5
		c0-5.7-3.8-10.8-9.2-12.4C453.8,18.4,420.8,9.7,380.2,9.7L380.2,9.7z"/>
</g>
<g>
	<path class="st0" d="M230.4,305.6c-17-6.4-75.4-26.6-133.8-26.6c-23.1,0-43.6,3.2-61,9.6v-245c10.2-3.1,37.9-10.4,72.1-10.4
		c44.9,0,91.4,19.2,122.9,43.3v139.4l-0.1-7.8V305.6z"/>
	<path d="M107.7,33.2c44.9,0,91.4,19.2,122.9,43.3v139.4l-0.1-7.8v97.5c-17-6.4-75.4-26.6-133.8-26.6c-23.1,0-43.6,3.2-61,9.6v-245
		C45.8,40.5,73.5,33.2,107.7,33.2 M107.7,20.2c-36,0-65,7.7-75.8,11c-5.5,1.7-9.2,6.7-9.2,12.4v245c0,4.2,2.1,8.2,5.5,10.7
		c2.2,1.5,4.8,2.3,7.5,2.3c1.5,0,3-0.3,4.5-0.8c16-5.8,35-8.8,56.5-8.8c56.5,0,113.2,19.7,129.2,25.7c1.5,0.6,3,0.8,4.6,0.8
		c2.6,0,5.2-0.8,7.4-2.3c3.5-2.4,5.6-6.4,5.6-10.7v-87.8c0.1-0.6,0.1-1.2,0.1-1.9V76.5c0-4.1-1.9-7.9-5.1-10.3
		c-17.3-13.3-38-24.5-59.8-32.6C154.8,24.9,130.3,20.2,107.7,20.2L107.7,20.2z"/>
</g>
<g>
	<path class="st0" d="M433.6,288.7c-18.7-6.9-40.2-10.3-64.1-10.3c-58.4,0-114,20.4-130.8,27.1v-97.3l-0.2,7.8V76.5
		c31.5-24.1,78-43.3,122.9-43.3c34.1,0,61.9,7.3,72.1,10.4C433.6,43.6,433.6,288.7,433.6,288.7z"/>
	<path d="M361.5,33.2c34.1,0,61.9,7.3,72.1,10.4v245.1c-18.7-6.9-40.2-10.3-64.1-10.3c-58.4,0-114,20.4-130.8,27.1v-97.3l-0.2,7.8
		V76.5C270.1,52.4,316.6,33.2,361.5,33.2 M361.5,20.2c-22.6,0-47.2,4.6-71,13.4C268.7,41.7,248,53,230.7,66.2
		c-3.2,2.5-5.1,6.3-5.1,10.3v139.4c0,0.7,0.1,1.3,0.2,2v87.5c0,4.3,2.1,8.3,5.7,10.8c2.2,1.5,4.7,2.2,7.3,2.2c1.6,0,3.3-0.3,4.8-0.9
		c15.3-6.1,69.7-26.1,125.9-26.1c22.3,0,42.4,3.2,59.6,9.5c1.5,0.5,3,0.8,4.5,0.8c2.6,0,5.2-0.8,7.4-2.3c3.5-2.4,5.6-6.4,5.6-10.7
		V43.6c0-5.7-3.8-10.8-9.2-12.4C426.5,27.9,397.3,20.2,361.5,20.2L361.5,20.2z"/>
</g>
<g>
	<path d="M71.2,236.6H71l-10.7,19.7c-0.7,1.4-1.8,2.1-3.2,2.1c-0.7,0-1.3-0.3-1.7-0.8c-0.4-0.5-0.5-1.2-0.3-2l0.3-0.8l37.8-70.4
		c0.9-1.7,2-2.5,3.4-2.5c1.2,0,1.9,0.8,1.9,2.5l0.3,70.4l-0.2,0.9c-0.1,0.6-0.6,1.2-1.3,1.7c-0.7,0.6-1.4,0.9-2.1,0.9
		c-1.3,0-2-0.7-2.1-2.1v-19.7H71.2z M73.8,231.1h19.4l-0.1-36L73.8,231.1z"/>
</g>
<g>
	<path d="M406.8,90.1H396l-25.2,31.3c-0.7,0.9-1.6,1.4-2.6,1.4c-0.8,0-1.4-0.3-1.8-0.8c-0.4-0.5-0.5-1.1-0.4-1.9
		c0.1-0.2,0.3-0.5,0.4-0.7c0.1-0.3,0.2-0.5,0.4-0.7l23-28.7c-3.6,0-6.5-1.1-8.7-3.4c-2.1-2.3-3.2-5.1-3.2-8.5c0-1.5,0.2-3,0.7-4.5
		l2.8-10.9c0.6-2.2,1.6-4.3,3-6.3s3.1-3.8,5-5.2c1.9-1.5,3.9-2.7,6.2-3.6c2.2-0.9,4.5-1.3,6.7-1.3h19.2c1.7,0,2.3,0.9,1.9,2.7
		l-19,71c-0.6,1.8-1.7,2.7-3.4,2.7c-0.5,0-1.1-0.2-1.6-0.7c-0.6-0.4-0.7-1.1-0.4-2.1L406.8,90.1z M392,84.7h16.3l8.7-32.8h-16.4
		c-3,0-5.8,1.1-8.6,3.2c-2.7,2.2-4.5,4.7-5.3,7.7L384,73.7c-0.1,0.5-0.2,1-0.3,1.5c-0.1,0.5-0.2,0.9-0.2,1.4c0,2.3,0.8,4.3,2.3,5.8
		C387.4,83.9,389.4,84.7,392,84.7z"/>
</g>
<g transform="translate(0.000000,256.000000) scale(0.100000,-0.100000)">
	<g>
		<path class="st1" d="M977.4,2194.3c-5.8-68.2,26.3-167.5,98.2-304c31-58.4,77.6-156,105.1-216.4c26.8-60.1,70.1-151.2,95.5-202.2
			c25.7-50.2,54.1-117,62.3-147.1c15.2-52.8,26.1-153.7,18.5-172c-7.3-17.6-51.3,19.5-136.8,116.8
			c-102.6,116.4-140.5,143.3-227.6,163.7c-78.7,17.9-130.7,17-179.9-4c-66.8-28.4-88.6-97.7-48.3-156.5
			c7.3-11.6,46.2-42.3,85.6-69.8c93.4-63.5,145.6-110.1,297.7-265c68.5-69.6,137.5-136,154.1-148c16.6-12,88-53.6,159.4-93.4
			c210.7-117.2,296.3-180.9,351.2-264.7c24.8-37.8,40.3-39.9,98.1-10.4c29,13.9,148.5,67.8,265.8,118.3
			c250.2,107.6,247.8,106,203.1,181.2c-27.3,46.6-54.7,125.9-58.7,170.6c-0.9,12.4,0.4,53.2,2.8,90.1
			c9.2,124.4-24.3,387.1-76.4,600.6c-20.3,84.1-22.1,113.3-18.8,256.6c7.3,324.1-16.8,476.1-80.8,502.5
			c-55.1,22.8-144.8-40-160.2-112.9c-3.1-15.9-5.4-73.5-4.7-128c1.9-110.1-9.4-314.6-17.4-323.4c-2.3-3.4-8.7,31.1-13,76.8
			c-8.8,82.8-78.5,381-115.2,490c-35.6,107.7-78,157-143.8,168.7c-48.4,7.9-79.6-9.3-97.8-53.4c-23-57.7-17.2-108.3,37.8-306.6
			c28.2-104.6,48.5-197.3,58.5-273c5.9-42,1.7-33.4-32.5,69.4c-13.3,40.8-42.2,125-64.4,185.8c-21.9,61.6-53.8,153.1-70.3,202.9
			c-32.9,99.7-56.3,142.9-88.6,164.8c-30.4,20.3-81.6,23.4-116.5,7.7c-26-10.8-33.6-18.8-44.7-47.8c-17.5-44.4-12.7-95.4,21.4-227.5
			c25.9-97.7,41.8-144.7,134.3-398.1c71.4-193.9,46.9-176-47.2,35.8c-68.5,153.1-171.9,340.4-216.2,391.4
			c-44.8,52.1-67.1,60.4-113.4,44.3c-32.6-12.3-38.6-18.5-55.4-52.9C987.7,2233.9,979,2206.5,977.4,2194.3z"/>
		<path class="st0" d="M1370.1,2520c24.2,0,48.5-6,65.9-17.6c32.3-21.9,55.7-65.2,88.6-164.8c16.4-49.8,48.4-141.3,70.3-202.9
			c22.2-60.8,51.1-145.1,64.4-185.8c21.9-65.8,31.5-93,34-93c1.4,0,0.6,8.6-1.5,23.7c-10.1,75.6-30.3,168.3-58.5,273
			c-55,198.3-60.7,248.9-37.8,306.6c15.4,37.2,40,55.3,76.3,55.3c6.8,0,13.9-0.6,21.5-1.9c65.8-11.7,108.2-61.1,143.8-168.7
			c36.7-109,106.4-407.2,115.2-490c4.2-43.6,10.2-77.1,12.7-77.1c0.1,0,0.2,0.1,0.3,0.2c7.9,8.8,19.2,213.3,17.4,323.4
			c-0.7,54.5,1.6,112.1,4.7,128c13.3,62.5,81.1,117.6,135,117.6c8.9,0,17.4-1.5,25.3-4.7c64-26.4,88.1-178.4,80.8-502.5
			c-3.2-143.3-1.5-172.4,18.8-256.6c52.1-213.5,85.7-476.1,76.4-600.6c-2.3-36.9-3.7-77.7-2.8-90.1c3.9-44.7,31.4-124,58.7-170.6
			c44.7-75.3,47-73.7-203.1-181.2c-117.3-50.5-236.8-104.5-265.8-118.3c-26.2-13.4-43.7-20.3-57.3-20.3c-16.4,0-27.2,10-40.8,30.7
			c-54.9,83.8-140.5,147.5-351.2,264.7c-71.4,39.8-142.8,81.4-159.4,93.4c-16.6,12-85.6,78.4-154.1,148
			c-152.1,154.9-204.3,201.5-297.7,265c-39.4,27.5-78.4,58.2-85.6,69.8c-40.3,58.8-18.5,128.2,48.3,156.5
			c26.1,11.2,53.1,16.7,84.4,16.7c27.6,0,58.6-4.3,95.4-12.6c87.1-20.5,125.1-47.4,227.6-163.7c71.8-81.7,114.4-121,130.5-121
			c3.1,0,5.2,1.4,6.3,4.2c7.6,18.4-3.2,119.3-18.5,172c-8.2,30.1-36.6,96.9-62.3,147.1c-25.4,51-68.7,142-95.5,202.2
			c-27.5,60.4-74.2,158-105.1,216.4c-71.9,136.4-104,235.8-98.2,304c1.6,12.2,10.3,39.6,20.9,61.1c16.8,34.4,22.8,40.5,55.4,52.9
			c13.7,4.8,25.3,7.4,35.9,7.4c25.5,0,45.9-15,77.5-51.7c44.3-51,147.7-238.3,216.2-391.4c50.2-113,80.5-170.8,87.2-170.8
			c5.8,0-6.6,44.4-40,134.9c-92.5,253.4-108.3,300.4-134.3,398.1c-34.1,132-38.9,183.1-21.4,227.5c11.1,29,18.7,37,44.7,47.8
			C1334.4,2516.7,1352.2,2520,1370.1,2520 M1370.1,2560C1370.1,2560,1370.1,2560,1370.1,2560c-24,0-46.9-4.6-66.4-13.2
			c-35.8-15-51.3-31.5-66.2-70.2c-21.1-53.5-16.6-110.1,20-251.8c4-14.9,7.7-28.7,11.5-42.2c-28.7,48.8-54.1,87.5-71.7,107.7
			c-34.7,40.3-64.9,65.4-107.7,65.4c-14.7,0-30.3-3.1-49.1-9.7l-0.5-0.2l-0.5-0.2c-44.4-16.8-57-31.4-77.2-72.7
			c-11.6-23.5-22.2-55.1-24.6-73.4l-0.1-0.9l-0.1-0.9c-6.5-77,26.1-180.6,102.7-326c29.8-56.2,75.9-152.4,104.1-214.4
			c27.7-62.1,71.5-154,96.1-203.4c24.4-47.7,52.1-112.8,59.5-139.8l0.1-0.3l0.1-0.3c7.2-25.1,12.8-59.5,16.1-89.2
			c-16,16.1-37.4,38.9-66,71.4c-107.7,122.3-151.8,153.5-248.5,176.3c-41.2,9.4-74.3,13.7-104.6,13.7c-36.1,0-68.9-6.5-100.1-19.9
			c-44.1-18.7-75.2-52.1-87.4-93.9c-11.9-40.6-4.2-83.9,21.6-121.8c14.6-21.8,66.2-59.6,96-80.3c90.7-61.7,142.5-107.9,292-260.2
			c63.2-64.2,138.1-137.1,159.1-152.4c22.6-16.4,113.4-68,163.4-95.9C1647,547.3,1728.9,486.1,1779,409.7
			c10.4-15.8,32-48.7,74.2-48.7c22.6,0,45.5,9.3,75.1,24.4c27.6,13.2,144.5,66,263.9,117.5l4.5,1.9c179.7,77.3,228,98,242.6,142.9
			c10.7,32.8-5.4,59.9-24,91.2l-1.4,2.3c-24.3,41.5-49.7,114.6-53.2,153.3c-0.6,9.4,0.4,46,2.8,84.4
			c9.6,128.9-23.8,392.4-77.5,612.6c-19.1,79-20.9,104.3-17.7,246.2c8.1,358.8-20.5,505.3-105.5,540.4c-12.5,5.2-26.1,7.8-40.5,7.8
			c-74.6,0-157.5-71.2-174.1-149.3l-0.1-0.3l-0.1-0.3c-4.3-21.7-6-83.3-5.5-132.1c-23.2,98.6-49.6,199-67.7,252.6
			c-28.5,86.2-71.6,177-174.7,195.3l-0.3,0l-0.3,0c-9.7,1.6-19.1,2.4-28,2.4c-36.6,0-86-13.9-113.3-80l-0.1-0.2l-0.1-0.2
			c-8.8-22.2-13.9-43.5-15.2-68.2c-27.2,71.2-51.4,107.4-84.5,130C1434.8,2551.3,1403.5,2560,1370.1,2560L1370.1,2560L1370.1,2560z"
			/>
	</g>
	<path class="st0" d="M2307.9,680.6L2138.1,607c-93.1-39.8-191.7-82.7-218.7-93.8l-49.5-21.8l-31,39.5
		c-40.1,51-171.4,141.4-347.2,238.9c-71.7,39.1-139.9,80.2-152.1,90.4c-12.1,10.2-78.1,75.4-146.6,145
		c-137.5,140.2-201.8,196.9-296.7,261.2c-97.5,66.1-97,90,1.5,97.5c44.4,3.1,60.3,0,111.3-20.2c58.9-24.3,60.8-25.9,147.9-123.1
		c48.2-54.3,101.7-108.2,117.5-120c35.4-26.6,80.9-37.7,115-27.7c23.4,6.7,26.8,10.5,38.3,48.8c25.8,87.5,1.2,221.6-66.2,354.4
		c-19.1,39-69.1,143.1-110.5,232.5c-41.5,89.4-95,199.3-119.4,244.6c-45.4,86-62.4,134.3-71.1,200.8c-4.4,35.3,7.4,90.7,18.4,86.2
		c2.1-1,15.3-15,28.9-30c47.6-55.8,140.5-226.8,220.1-406.9c58.6-131.1,84.6-168.4,132.4-188.1c40.4-16.7,69.7-6.4,84.8,30.3
		c17.4,42,10,80.3-44.1,226.6c-102.4,277.3-147.9,429.6-154.6,517.6c-3.6,43.6-2.6,45.8,13.8,50.2c39.2,9.6,55.8-17,104.4-166.1
		c16.1-50.5,51.7-154,78.6-230.5c26.6-77.3,58.8-170.5,71.7-207.8c38.4-111.4,86.3-164,127.4-139.6c53.8,32,42.3,200.3-32.5,475.7
		c-37.3,136.8-53.4,226.9-43.6,250.5c17.2,41.9,72.3-24.7,103.1-125.3c38.7-129.5,95.3-375.8,101.6-443.8
		c3-36.6,10.6-82.8,16.3-102.3c27.4-88,112.9-125,139.3-61c23.1,55.9,37.8,241.8,35.8,438.8c-1.2,95.1,2.5,108.2,32.8,123.3l22,11.5
		l11.4-34.8c16.3-48,24.5-201.2,19.7-377.4c-4.6-178-4.8-176.3,21.8-287.1c50.5-211.1,83.5-481.2,73-608.7
		c-4.9-74.4,4.8-130.2,39-214.1L2307.9,680.6z"/>
</g>
<g transform="translate(0.000000,256.000000) scale(0.100000,-0.100000)">
	<g>
		<path class="st1" d="M3664.9,1088c4.3,38,2.5,46.4-18.5,74.3c-30.4,38.5-53.8,43.4-119.5,23.4c-64.8-19.3-252.5-122.1-392.3-214.6
			c-193-128.5-223.2-130.4-59-5c213.8,164.4,252.4,195.6,326.7,264.1c99.6,93.2,130.9,133.7,139.9,180.6c6.1,30.4,4,41.3-12.1,64.3
			c-21,32-66,56.8-102.5,56c-39-1.2-82-25.2-163.1-91.7c-40.6-33.3-116.6-93.4-168.1-133.7c-51.4-39.4-120.9-95.1-154-122.4
			c-83.9-68.5-92.1-73.5-64.6-41.2c49,58.4,115.8,125.9,195.7,199.1c152.7,138,184.7,177.6,196.2,238.6c8.3,47-8.9,78.3-54,97.5
			c-61.8,25.4-124.1,6.4-211.8-65.4c-89.4-72.3-308-286.8-359.9-352c-28.2-36.2-52.1-61.9-52.2-57.9c-2,11.7,98,190.4,158.6,282.3
			c29.8,45.7,58.8,95.5,64.7,110.6c26,69.8-16,170.8-74.8,181.2c-68.2,12-170-103.4-337.5-381c-74-122.7-91.1-146.4-153.4-206.5
			c-158.4-152.3-327.5-356.1-386.4-466.1c-17.8-32.4-38.5-67.6-45.9-77.6c-27.3-35.6-93-87.9-140.9-112.6
			c-78-39.6-79.2-37,74.4-261.8c71.9-105.5,144-215.1,161-242.3c33-55.9,47.2-62.4,88.4-43.8c91.3,41.3,197.7,49.3,438.4,35.3
			c81.6-4.6,164.2-7.8,184.6-6.6s114.2,20.3,209.4,42.4c211.4,49.3,280.4,60.6,393.3,64.2c48,2.1,97.4,7.1,109.7,13
			c65.5,28.1,84.3,98.3,43.1,158c-30.2,44.1-73.7,72.7-149.7,99.8c-84.5,29.4-131,27-279.9-16.3c-124.3-36.3-181.4-44.1-178.1-25.3
			c3.4,19.6,66.6,99,107.8,135.4c23.1,21,82.8,62.2,131.5,90.8c48.8,29.4,134.1,83.1,189,119.5c55.6,36.3,147.3,93.7,204.7,126.4
			c133.8,76.7,214.2,143.3,245.8,204C3655,1036.4,3662.3,1064.2,3664.9,1088z"/>
		<path class="st0" d="M2730.7,1777c3.3,0,6.6-0.3,9.8-0.8c58.8-10.3,100.8-111.4,74.8-181.2c-5.9-15.1-34.8-65-64.7-110.6
			c-60.6-92-160.6-270.7-158.6-282.3c0-0.3,0.1-0.4,0.4-0.4c3.1,0,25.6,24.6,51.8,58.3c51.8,65.2,270.4,279.7,359.9,352
			c63.3,51.8,113.3,76.1,159.5,76.1c17.8,0,35.1-3.6,52.3-10.7c45.1-19.2,62.2-50.5,54-97.5c-11.5-61-43.5-100.6-196.2-238.6
			c-79.9-73.2-146.7-140.6-195.7-199.1c-10.5-12.3-15.8-19.2-13.7-19.2c3.4,0,26.4,18.1,78.2,60.4c33.1,27.3,102.6,83,154,122.4
			c51.5,40.2,127.5,100.4,168.1,133.7c81.1,66.5,124.1,90.5,163.1,91.7c0.6,0,1.2,0,1.9,0c36.2,0,79.9-24.5,100.6-56
			c16.2-23,18.3-33.9,12.1-64.3c-9-46.9-40.4-87.4-139.9-180.6c-74.2-68.5-112.8-99.7-326.7-264.1c-81-61.9-114.7-92.7-104.9-92.7
			c10.1,0,66.1,32.6,163.9,97.7c139.8,92.6,327.5,195.3,392.3,214.6c24.7,7.5,43.5,11.5,58.9,11.5c25.4,0,41.7-10.9,60.6-34.9
			c20.9-27.9,22.7-36.3,18.5-74.3c-2.6-23.8-9.9-51.6-15.1-62.8c-31.7-60.7-112-127.3-245.8-204c-57.4-32.7-149.1-90.1-204.7-126.4
			c-54.9-36.4-140.2-90.1-189-119.5c-48.6-28.6-108.4-69.8-131.5-90.8c-41.1-36.4-104.3-115.8-107.8-135.4c-1.2-6.6,5.1-9.9,19-9.9
			c25.9,0,78.3,11.5,159.1,35.2c84.1,24.5,135.5,35.9,179.6,35.8c34,0,63.6-6.8,100.3-19.6c76-27.1,119.5-55.7,149.7-99.8
			c41.2-59.7,22.4-129.9-43.1-158c-12.3-5.9-61.7-11-109.7-13c-112.9-3.6-181.9-14.9-393.3-64.2c-95.2-22.1-189-41.1-209.4-42.4
			c-3-0.2-7.5-0.3-13.1-0.3c-32,0-102.1,2.9-171.6,6.8c-71.2,4.1-130.6,6.4-181.4,6.4c-120.9,0-192.7-12.6-257-41.7
			c-13.2-6-23.7-9.3-32.8-9.3c-19.4,0-33.2,15.2-55.6,53.1c-17,27.2-89.1,136.8-161,242.3c-153.6,224.9-152.4,222.2-74.4,261.8
			c48,24.7,113.7,77,140.9,112.6c7.4,10,28.1,45.1,45.9,77.6c58.9,110,228,313.8,386.4,466.1c62.3,60.2,79.3,83.8,153.4,206.5
			C2562.6,1659.7,2662.6,1777,2730.7,1777 M2730.7,1817c-72,0-161.1-68.2-361.9-401.1c-73.3-121.5-88.4-141.9-146.9-198.4
			c-163.3-157-332.6-361.7-393.8-476c-18.3-33.3-37.1-64.8-42.6-72.4c-23.7-30.8-84.3-78.9-127.3-101.1l-2.2-1.1
			c-32.5-16.5-60.6-30.7-69.2-64.2C1575,457,1604.6,413.6,1715,252l2.8-4.1C1791,140.6,1861.4,33.3,1877.6,7.4
			c22.6-38.2,46.5-72.3,89.8-72.3c18.3,0,35.2,6.5,49.3,12.9c60.6,27.4,128,38.1,240.5,38.1c48.4,0,105.3-2,179.1-6.3
			c74-4.2,142.2-6.9,173.9-6.9c6.6,0,11.7,0.1,15.5,0.4c26,1.6,128.3,23,215.9,43.4c207.9,48.5,276.4,59.7,385.6,63.2
			c36.7,1.6,100.5,5.8,124.5,16.4c42.1,18.1,71.8,50.5,83.5,91.2c12.1,41.8,3.7,86.6-23.6,126.2c-35.1,51.2-84.1,84.5-169.2,114.8
			c-44.8,15.6-77.7,21.9-113.8,21.9c-51.8,0-109.2-13.7-190.7-37.4c-41.4-12.1-71.8-19.9-94-25c18.7,23.3,41.8,49.4,61.4,66.7
			l0.2,0.2l0.2,0.2c20.7,18.8,79,59,124.8,85.9c47.6,28.7,133.9,82.9,190.8,120.6c56.8,37,147.3,93.6,202.4,125
			c142.7,81.7,225.7,151.7,261.5,220.3l0.4,0.8l0.4,0.8c7.7,16.7,15.7,49.1,18.5,75.3c5.1,45.6,2.3,64.6-26.2,102.6l-0.3,0.4
			l-0.3,0.4c-19.6,24.8-45.8,50.1-92,50.1c-18.9,0-40-4-70.5-13.2c-25.6-7.6-67.7-26.6-118-52.4c10.4,9.3,20.9,18.9,32.1,29.3
			c107.1,100.2,141.1,145.6,152.1,202.4c8.2,40.3,3.9,62.6-18.3,94.4c-28.3,42.6-84.4,73.5-133.7,73.5c-0.9,0-1.9,0-2.8,0
			c-40.3-1.3-80.2-18.9-141.3-64.4c12.2,21.5,19.3,42.3,23.7,65.7l0,0.3l0,0.3c11.6,65.8-15.3,114.6-77.7,141.2l-0.2,0.1l-0.2,0.1
			c-22.1,9.1-44.9,13.7-67.5,13.7c-55.9,0-112.9-26.3-184.8-85.2c-43.8-35.4-119.8-106.1-192.3-176.8c27,41.5,58.4,94.5,66.1,114.4
			l0.1,0.3l0.1,0.3c18.5,49.6,11.6,114.6-17.6,165.5c-22,38.4-53.2,62.9-87.8,69C2741.9,1816.5,2736.3,1817,2730.7,1817
			C2730.7,1817,2730.7,1817,2730.7,1817L2730.7,1817z"/>
	</g>
	<path class="st0" d="M3558,1035.7c-42.9-51.5-83.2-83.1-167.7-131.3c-44.7-25.3-148.9-89.4-231.8-142.7
		c-82.9-53.3-180.8-114.4-217.9-137c-128.1-76.1-220.7-176.1-245.8-263.8c-10.8-38.5-10.1-43.5,6.1-61.7
		c23.7-26.8,67.8-41.7,112-38.2c19.6,1.4,93.7,18.3,163.5,38.3c125.7,35.3,128.2,35.7,190.9,24.6c53.9-10.2,69-16.1,104.8-42.6
		c79.3-59.1,66.8-79.6-50.9-83.1c-114.5-3.3-199.3-16.8-390.4-61.5c-95.1-22.1-185.9-41.7-201.6-43.8c-15.7-2.1-95.4-0.2-176.8,5.1
		c-200.6,11.9-360,5.9-421.1-15.7l-47.3-16.6l-30.1,44.8c-16.9,23.9-77.2,112.9-134.4,196.5l-103.9,153.1l54.2,37.3
		c73.9,52.4,111.8,94.3,147.6,160c59.5,113.1,232.1,323.5,387.8,474.6c81.8,79.3,80.8,77.9,172.2,230.7
		c90.4,151.3,179.3,276.3,218.8,308l28.4,23.3l12.4-21.5c17.5-28.9,13.6-42-38.4-121.7c-107.4-165.3-194.4-330.1-204.9-389.7
		c-12-68.1,80-82.8,150.2-23.2c15.3,13.6,46.5,48.4,68.6,77.7c41.7,54,221.6,231.7,323.6,320.4c79.8,68.4,162.1,95.1,154.2,50.4
		c-4.4-25-66.4-92.5-171.1-188c-210.7-192.4-310.5-328.4-282.3-384.1c21.6-42.6,90.3-24,182.3,49.5c31,24.5,108.1,86.1,172,137.1
		c63.7,50.2,149.1,118.3,189.9,152.3c120.9,100,149.1,113.6,177.2,84.4c11.4-12.5,11.1-14.9-15.2-49.8
		c-52.8-70.6-172.9-174.8-407.9-354c-124-94.5-150.8-123-158.6-167.7c-6.9-39.1,12.2-63.5,55.3-71c51-9,92.9,8.7,212.5,87.9
		c163.8,109.3,333.9,203.8,403.9,225.5c19.6,5.5,38.2,10.2,40.6,9.9C3600.4,1116.2,3580.6,1063.2,3558,1035.7z"/>
</g>
<g>
	<g>
		<path d="M126.8,324c-0.4-9.8-0.7-21.7-0.7-33.6h-0.4c-2.5,10.4-5.9,22.1-9.1,31.7l-9.9,31.9H92.2l-8.7-31.7
			c-2.7-9.6-5.5-21.2-7.4-31.9h-0.2c-0.5,11-0.8,23.7-1.5,33.9l-1.5,31.1H55.8l5.2-81.8h24.6l8,27.3c2.5,9.5,5.1,19.7,6.9,29.2h0.4
			c2.3-9.5,5.1-20.3,7.8-29.4l8.7-27.2h24.1l4.5,81.8H128L126.8,324z"/>
		<path class="st0" d="M141.6,273.5l4.5,81.8H128l-1.2-31.3c-0.4-9.8-0.7-21.7-0.7-33.6h-0.4c-2.5,10.4-5.9,22.1-9.1,31.7l-9.9,31.9
			H92.2l-8.7-31.7c-2.7-9.6-5.5-21.2-7.4-31.9h-0.2c-0.5,11-0.8,23.7-1.5,33.9l-1.5,31.1H55.8l5.2-81.8h24.6l8,27.3
			c2.5,9.5,5.1,19.7,6.9,29.2h0.4c2.3-9.5,5.1-20.3,7.8-29.4l8.7-27.2H141.6 M141.6,267.5h-24.1c-2.6,0-4.9,1.7-5.7,4.2l-8.7,27.2
			c0,0,0,0.1,0,0.1c-0.6,2.1-1.2,4.3-1.8,6.5c-0.5-2-1.1-4.1-1.6-6.2c0,0,0-0.1,0-0.1l-8-27.3c-0.7-2.6-3.1-4.3-5.8-4.3H61
			c-3.2,0-5.8,2.5-6,5.6l-5.2,81.8c-0.1,1.7,0.5,3.3,1.6,4.5c1.1,1.2,2.7,1.9,4.4,1.9h17.1c3.2,0,5.8-2.5,6-5.7l1.1-23.3l6.4,23.3
			c0.7,2.6,3.1,4.4,5.8,4.4h14.4c2.6,0,4.9-1.7,5.7-4.2l8.6-27.5l1.1,27.3c0.1,3.2,2.8,5.8,6,5.8h18.1c1.6,0,3.2-0.7,4.4-1.9
			c1.1-1.2,1.7-2.8,1.6-4.5l-4.5-81.8C147.4,270,144.8,267.5,141.6,267.5L141.6,267.5z"/>
	</g>
	<g>
		<path d="M228.2,273.5v15.2h-30.9v66.6h-18.6v-81.8H228.2z"/>
		<path class="st0" d="M228.2,273.5v15.2h-30.9v66.6h-18.6v-81.8H228.2 M228.2,267.5h-49.5c-3.3,0-6,2.7-6,6v81.8c0,3.3,2.7,6,6,6
			h18.6c3.3,0,6-2.7,6-6v-60.6h24.9c3.3,0,6-2.7,6-6v-15.2C234.2,270.2,231.5,267.5,228.2,267.5L228.2,267.5z"/>
	</g>
	<g>
		<path d="M275.3,289h-22v-15.5h62.9V289h-22.3v66.2h-18.6V289z"/>
		<path class="st0" d="M316.2,273.5V289h-22.3v66.2h-18.6V289h-22v-15.5H316.2 M316.2,267.5h-62.9c-3.3,0-6,2.7-6,6V289
			c0,3.3,2.7,6,6,6h16v60.2c0,3.3,2.7,6,6,6h18.6c3.3,0,6-2.7,6-6V295h16.3c3.3,0,6-2.7,6-6v-15.5
			C322.2,270.2,319.5,267.5,316.2,267.5L316.2,267.5z"/>
	</g>
	<g>
		<path d="M360.7,273.5l11.9,28.8c2.2,5.8,3.9,10.7,5.7,15.7h0.4c1.1-3.5,2.4-9,4.5-15.9l8.9-28.5h19.4l-15.3,39.7
			c-5,12.7-10.1,25.1-16.1,32.6c-5.3,6.7-12.1,10.8-21.7,10.8c-4.2,0-6.8-0.5-9.1-1.3l1.3-14.8c1.5,0.4,3.4,0.6,6.1,0.6
			c5.7,0,9.6-3.9,11-7.6c0.7-1.3,0.4-2.4-0.2-3.8l-27.5-56.2H360.7z"/>
		<path class="st0" d="M411.4,273.5L411.4,273.5 M411.4,273.5l-15.3,39.7c-5,12.7-10.1,25.1-16.1,32.6c-5.3,6.7-12.1,10.8-21.7,10.8
			c-4.2,0-6.8-0.5-9.1-1.3l1.3-14.8c1.5,0.4,3.4,0.6,6.1,0.6c5.7,0,9.6-3.9,11-7.6c0.7-1.3,0.4-2.4-0.2-3.8l-27.5-56.2h20.9
			l11.9,28.8c2.2,5.8,3.9,10.7,5.7,15.7h0.4c1.1-3.5,2.4-9,4.5-15.9l8.9-28.5H411.4 M411.4,267.5L411.4,267.5H392
			c-2.6,0-5,1.7-5.7,4.2l-8.5,27.4l-11.5-27.9c-0.9-2.2-3.1-3.7-5.5-3.7h-20.9c-2.1,0-4,1.1-5.1,2.8c-1.1,1.8-1.2,4-0.3,5.8
			l27.3,55.7c-0.6,1.1-2.1,3.2-5.2,3.2c-1.9,0-3.5-0.1-4.6-0.4c-0.5-0.1-1-0.2-1.5-0.2c-1.2,0-2.5,0.4-3.5,1.1
			c-1.4,1-2.3,2.6-2.5,4.4l-1.3,14.8c-0.2,2.7,1.4,5.2,3.9,6.2c3.2,1.2,6.6,1.7,11.2,1.7c10.7,0,19.4-4.3,26.4-13.1
			c6.6-8.2,11.8-20.8,17-34.2l15.2-39.5c0.3-0.7,0.5-1.5,0.5-2.3C417.4,270.2,414.8,267.5,411.4,267.5L411.4,267.5z M411.4,279.5
			L411.4,279.5L411.4,279.5L411.4,279.5z"/>
	</g>
</g>
</svg>
